<?xml version="1.0" standalone="no"?>
<!DOCTYPE svg PUBLIC "-//W3C//DTD SVG 20010904//EN"
 "http://www.w3.org/TR/2001/REC-SVG-20010904/DTD/svg10.dtd">
<svg version="1.0" xmlns="http://www.w3.org/2000/svg"
 width="666.000000pt" height="375.000000pt" viewBox="0 0 666.000000 375.000000"
 preserveAspectRatio="xMidYMid meet">

<g transform="translate(0.000000,375.000000) scale(0.100000,-0.100000)"
fill="#000000" stroke="none">
<path d="M4460 3561 c-87 -27 -164 -95 -203 -179 -33 -73 -31 -208 4 -283 94
-200 338 -244 484 -88 68 73 89 126 90 229 0 77 -3 92 -33 152 -39 79 -93 129
-169 158 -54 20 -127 25 -173 11z"/>
<path d="M3727 3479 c-138 -47 -1068 -412 -1063 -417 2 -1 214 27 471 63 256
36 477 62 490 59 39 -10 55 -37 79 -135 l23 -94 253 -3 c230 -2 252 -1 246 14
-16 41 -262 443 -290 473 -59 63 -112 74 -209 40z"/>
<path d="M4286 2924 c-3 -9 -6 -17 -6 -19 0 -1 16 -5 35 -7 41 -5 42 -2 13 23
-28 23 -34 23 -42 3z"/>
<path d="M3093 2814 c-220 -37 -364 -126 -433 -269 -85 -173 -51 -419 75 -554
55 -58 105 -90 195 -123 64 -23 71 -23 610 -28 510 -5 547 -6 583 -24 79 -39
88 -136 18 -183 -32 -22 -44 -23 -196 -23 l-163 0 -263 -222 -263 -223 49 -3
c28 -2 239 -2 470 1 392 3 425 5 498 25 253 70 387 252 387 528 0 213 -88 338
-291 412 l-74 27 -560 5 c-517 5 -563 6 -593 23 -76 41 -77 152 -2 189 32 17
90 18 760 18 l726 0 150 208 c83 114 154 213 158 220 11 19 -1726 16 -1841 -4z"/>
<path d="M3786 1748 c-3 -13 -7 -35 -9 -50 l-4 -28 156 0 c171 0 205 9 199 53
-5 38 -43 47 -195 47 -140 0 -143 0 -147 -22z"/>
<path d="M2736 1397 c-126 -166 -231 -308 -234 -315 -3 -9 26 -12 123 -12 134
0 156 -6 192 -48 19 -23 24 -24 40 -11 55 44 791 655 808 670 19 19 12 19
-340 18 l-360 0 -229 -302z"/>
<path d="M3485 1453 c-121 -101 -231 -193 -244 -204 -13 -11 -22 -21 -20 -24
3 -2 101 77 219 176 196 164 282 240 270 238 -3 0 -104 -84 -225 -186z"/>
<path d="M550 974 c-19 -8 -45 -25 -58 -37 -32 -30 -114 -194 -110 -220 4 -30
32 -34 251 -36 106 0 187 -5 187 -10 0 -41 -1 -41 -272 -41 l-259 0 -22 -24
c-12 -13 -28 -41 -36 -61 -11 -32 -11 -39 0 -46 21 -13 599 -11 640 2 68 23
99 57 152 166 39 82 48 108 40 121 -9 15 -37 17 -219 20 -115 1 -212 6 -216
10 -5 5 0 16 11 26 17 16 42 17 224 16 118 0 215 4 231 10 28 10 73 91 61 110
-4 6 -113 10 -288 10 -229 -1 -289 -4 -317 -16z"/>
<path d="M1292 969 c-24 -12 -54 -36 -68 -54 -37 -48 -186 -374 -182 -398 3
-20 10 -22 71 -25 100 -4 117 7 166 105 l41 83 227 0 c305 1 317 5 384 144 44
89 50 140 20 156 -12 6 -131 10 -318 10 -284 0 -300 -1 -341 -21z m434 -121
c4 -6 -3 -19 -16 -30 -19 -16 -41 -18 -171 -18 -81 0 -150 4 -153 8 -3 5 2 18
10 30 14 21 23 22 169 22 106 0 156 -4 161 -12z"/>
<path d="M2113 970 c-54 -24 -82 -68 -163 -251 -49 -110 -60 -145 -55 -169 12
-56 33 -60 337 -60 350 1 351 1 424 151 71 146 114 250 114 279 0 17 -9 39
-20 50 -19 19 -33 20 -307 20 -263 0 -292 -2 -330 -20z m398 -120 c26 -14 24
-26 -15 -113 -47 -103 -54 -107 -202 -107 -67 0 -129 3 -138 6 -24 9 -19 43
17 119 35 73 49 90 82 98 39 9 237 7 256 -3z"/>
<path d="M2302 793 c-24 -5 -67 -76 -57 -93 3 -6 35 -10 71 -10 62 0 65 1 84
33 32 51 24 72 -30 73 -25 1 -55 0 -68 -3z"/>
<path d="M2955 976 c-78 -34 -115 -91 -235 -359 -51 -114 -50 -119 43 -125 92
-6 110 5 152 90 51 103 57 108 129 108 l61 0 60 -100 60 -101 109 3 c144 4
149 10 80 111 l-51 75 45 6 c84 11 119 40 168 141 81 168 86 165 -296 165
-221 -1 -303 -4 -325 -14z m411 -128 c4 -6 -3 -19 -16 -30 -19 -16 -41 -18
-171 -18 -155 0 -175 6 -143 41 15 17 31 19 170 19 105 0 155 -4 160 -12z"/>
<path d="M3733 975 c-11 -8 -28 -34 -38 -57 -16 -40 -16 -43 1 -55 12 -9 52
-13 121 -13 84 0 103 -3 103 -15 0 -8 -29 -79 -65 -157 -36 -79 -64 -152 -63
-163 3 -18 12 -20 78 -23 96 -4 100 0 180 178 89 197 70 180 206 180 63 0 124
5 135 11 24 12 61 93 53 114 -9 22 -679 22 -711 0z"/>
<path d="M4548 958 c-30 -33 -208 -400 -208 -429 0 -29 23 -39 96 -39 66 0 75
2 101 29 33 33 216 422 211 448 -3 15 -16 18 -87 21 -83 3 -83 3 -113 -30z"/>
<path d="M4896 970 c-22 -11 -48 -28 -59 -37 -33 -31 -197 -373 -197 -412 0
-11 7 -22 16 -25 26 -10 134 -7 156 5 11 6 35 44 53 84 19 40 44 80 56 89 20
14 60 16 271 16 l248 0 20 33 c27 43 26 73 -2 81 -13 3 -126 6 -251 6 l-228 0
3 23 3 22 260 5 c143 3 266 9 273 13 16 10 52 81 52 102 0 13 -38 15 -317 15
-295 -1 -321 -2 -357 -20z"/>
<path d="M5687 983 c-16 -15 -3 -43 88 -188 52 -84 95 -156 95 -159 0 -3 -79
-6 -175 -6 -175 0 -176 0 -199 -25 -30 -32 -50 -80 -42 -100 5 -13 52 -15 355
-15 l349 0 48 33 c53 35 65 56 173 288 35 75 61 144 59 155 -3 15 -13 20 -58
22 -96 6 -93 9 -181 -175 -47 -98 -83 -163 -88 -157 -9 9 -83 135 -148 252
-19 34 -43 67 -53 72 -21 11 -213 14 -223 3z"/>
<path d="M1978 393 c-32 -37 -148 -203 -142 -203 7 0 108 79 212 167 l63 53
-59 0 c-44 0 -63 -5 -74 -17z"/>
</g>
</svg>
