<svg width="108" height="27" viewBox="0 0 108 27" fill="none" xmlns="http://www.w3.org/2000/svg">
<path d="M10.368 0.439999C12.24 0.439999 13.86 0.703999 15.228 1.232C16.62 1.76 17.88 2.564 19.008 3.644L16.272 6.848C14.568 5.456 12.744 4.76 10.8 4.76C9.768 4.76 8.952 4.976 8.352 5.408C7.752 5.816 7.452 6.416 7.452 7.208C7.452 7.76 7.584 8.216 7.848 8.576C8.112 8.912 8.58 9.236 9.252 9.548C9.924 9.86 10.932 10.232 12.276 10.664C14.82 11.48 16.692 12.488 17.892 13.688C19.092 14.864 19.692 16.544 19.692 18.728C19.692 20.288 19.296 21.668 18.504 22.868C17.712 24.044 16.572 24.968 15.084 25.64C13.596 26.288 11.832 26.612 9.792 26.612C7.752 26.612 5.94 26.288 4.356 25.64C2.796 24.992 1.452 24.128 0.324 23.048L3.312 19.772C4.272 20.588 5.256 21.2 6.264 21.608C7.296 22.016 8.412 22.22 9.612 22.22C10.836 22.22 11.796 21.956 12.492 21.428C13.212 20.876 13.572 20.12 13.572 19.16C13.572 18.536 13.44 18.02 13.176 17.612C12.912 17.18 12.456 16.796 11.808 16.46C11.16 16.124 10.224 15.764 9 15.38C6.24 14.54 4.272 13.508 3.096 12.284C1.944 11.06 1.368 9.512 1.368 7.64C1.368 6.2 1.752 4.94 2.52 3.86C3.288 2.756 4.356 1.916 5.724 1.34C7.092 0.739998 8.64 0.439999 10.368 0.439999ZM22.9416 26V1.052H37.8096L37.1976 5.264H28.8456V11.888H36.1176V16.1H28.8456V26H22.9416ZM59.6005 17.72C59.6005 19.424 59.2285 20.948 58.4845 22.292C57.7645 23.636 56.6725 24.692 55.2085 25.46C53.7445 26.228 51.9565 26.612 49.8445 26.612C46.6765 26.612 44.2645 25.808 42.6085 24.2C40.9525 22.592 40.1245 20.432 40.1245 17.72V1.052H46.0285V17.468C46.0285 19.076 46.3285 20.276 46.9285 21.068C47.5525 21.836 48.5245 22.22 49.8445 22.22C51.1885 22.22 52.1605 21.836 52.7605 21.068C53.3845 20.276 53.6965 19.076 53.6965 17.468V1.052H59.6005V17.72ZM83.1578 26H75.6338L68.4338 6.668C68.6738 8.564 68.8538 10.244 68.9738 11.708C69.1178 13.148 69.1898 14.864 69.1898 16.856V26H63.9338V1.052H71.2778L78.6578 20.42C78.1298 17.132 77.8658 14.036 77.8658 11.132V1.052H83.1578V26ZM94.7528 1.052C98.6648 1.052 101.797 1.94 104.149 3.716C106.525 5.468 107.713 8.696 107.713 13.4C107.713 18.032 106.561 21.296 104.257 23.192C101.953 25.064 98.9648 26 95.2928 26H87.8048V1.052H94.7528ZM93.7088 5.336V21.716H95.6528C97.5968 21.716 99.0728 21.116 100.081 19.916C101.089 18.692 101.593 16.52 101.593 13.4C101.593 11.264 101.341 9.608 100.837 8.432C100.333 7.256 99.6488 6.452 98.7848 6.02C97.9208 5.564 96.8528 5.336 95.5808 5.336H93.7088Z" fill="#1979F5"/>
</svg>