<?xml version="1.0" encoding="UTF-8"?>
<svg version="1.1" xmlns="http://www.w3.org/2000/svg" width="192" height="62">

<!-- BULETAN -->
<!-- BULETAN -->
<path d="M0 0 C6 6 9 14 8.5 22 C7.5 30 5 37 -1 43 C-8 49 -15 52 -24 51 C-32 50 -39 46 -44 40 C-51 30 -51 30 -50 24 C-50 23.5 -50 23 -49.5 22 C-49.5 20.5 -49.5 19 -50 17.5 C-50 10 -46.5 4 -41.5 -2 C-29 -12 -12 -11 0 0 Z M-39 4 C-44 10 -45 15 -44 23 C-43 29 -38.5 34 -33 38 C-29 40 -25 40 -21 40 C-19.5 40 -18 40 -17 40 C-14 40 -11.5 39 -9 38 C-14 43 -24 42 -31 43 C-31 43.3 -31 43.6 -31 44 C-22.5 45 -15 45 -8 40 C-2 36 1 30.5 2.5 23 C3 16 1.5 10 -3 5 C-8 -0.5 -14 -3.5 -21 -3.5 C-28.5 -3.5 -34.5 -1.5 -39 4 Z M-48 26 C-47 28 -47 28 -47 28 Z M-46 30 C-45 32 -45 32 -45 32 Z M-44 33 C-43 35 -43 35 -43 35 Z M-41 38 C-40.5 38.5 -40 39 -39.5 39.5 C-39 39.5 -38.5 39 -38 38.5 C-39 38 -40 37.5 -41 37.5 Z" fill="#1878F4" transform="translate(52.875,10.25)"/>
<!-- BULETAN -->

<!-- BULETAN -->



<!-- HURUF N -->
<path d="M0 0 C3.3 0 6.6 0 10 0 C11.65 4.29 13.3 8.58 15 13 C15.33 8.71 15.66 4.42 16 0 C18.31 0 20.62 0 23 0 C23 9.57 23 19.14 23 29 C19.7 29 16.4 29 13 29 C11.35 24.38 9.7 19.76 8 15 C7.67 19.62 7.34 24.24 7 29 C4.69 29 2.38 29 0 29 C0 19.43 0 9.86 0 0 Z " fill="#1878F4" transform="translate(141,16)"/>
<!-- HURUF N -->


<!-- HURUF D -->
<path d="M0 0 C15.375 0 15.375 0 20.8125 4.5 C24.19304484 8.77016191 23.40358491 14.87080271 23 20 C21.77560487 23.60874354 20.86915959 25.32735995 17.875 27.64453125 C14.25008835 29.35355889 11.09648362 29.33224554 7.1875 29.1875 C4.815625 29.125625 2.44375 29.06375 0 29 C0 19.43 0 9.86 0 0 Z M7 6 C7 11.94 7 17.88 7 24 C8.98 23.67 10.96 23.34 13 23 C15.22264871 19.66602694 15.29675463 18.40485109 15.3125 14.5 C15.32925781 13.5409375 15.34601563 12.581875 15.36328125 11.59375 C15.18814413 9.00147554 15.18814413 9.00147554 13.79296875 7.15625 C11.65523977 5.54836663 11.65523977 5.54836663 7 6 Z " fill="#1878F4" transform="translate(169,16)"/>
<!-- HURUF D -->


<!-- HURUF U -->
<path d="M0 0 C2.64 0 5.28 0 8 0 C8.33 7.92 8.66 15.84 9 24 C10.65 23.67 12.3 23.34 14 23 C15.20270964 20.59458071 15.20316663 18.89633409 15.31640625 16.2109375 C15.35830078 15.26992188 15.40019531 14.32890625 15.44335938 13.359375 C15.48267578 12.37453125 15.52199219 11.3896875 15.5625 10.375 C15.60568359 9.38242187 15.64886719 8.38984375 15.69335938 7.3671875 C15.79961069 4.91160162 15.90164964 2.45591297 16 0 C18.31 0 20.62 0 23 0 C23.11643304 3.89558088 23.18732909 7.79071258 23.25 11.6875 C23.30027344 13.34168945 23.30027344 13.34168945 23.3515625 15.02929688 C23.45042101 23.20983836 23.45042101 23.20983836 21.171875 27.20703125 C18.0521168 29.78251509 15.48330693 30.15444092 11.5625 30.1875 C10.80066406 30.20167969 10.03882812 30.21585938 9.25390625 30.23046875 C6.58663489 29.95773216 5.18953651 29.5690929 3 28 C-0.88855395 22.59971609 -0.34761567 16.98857144 -0.1875 10.625 C-0.16719727 9.09166016 -0.16719727 9.09166016 -0.14648438 7.52734375 C-0.11130217 5.01767951 -0.06207539 2.5091191 0 0 Z " fill="#1878F4" transform="translate(114,16)"/>
<!-- HURUF U -->


<!-- HURUF S -->
<path d="M0 0 C0.495 0.474375 0.99 0.94875 1.5 1.4375 C0.84 2.7575 0.18 4.0775 -0.5 5.4375 C-4.24161103 5.4375 -7.78953557 4.92411829 -11.5 4.4375 C-11.17 5.4275 -10.84 6.4175 -10.5 7.4375 C-8.03662374 8.59855368 -5.5248922 9.40870977 -2.9453125 10.27734375 C-0.13092553 11.61260402 0.95026021 12.75930891 2.5 15.4375 C3.03561062 19.64586916 2.96774118 21.69556572 0.6875 25.3125 C-3.08049736 28.97284029 -6.98722265 28.76021352 -11.98046875 28.73828125 C-15.74343458 28.28905897 -17.63486555 26.8502448 -20.5 24.4375 C-19.51 23.1175 -18.52 21.7975 -17.5 20.4375 C-16.984375 20.6025 -16.46875 20.7675 -15.9375 20.9375 C-12.76636124 21.58799 -9.72781666 21.4995734 -6.5 21.4375 C-6.17 20.1175 -5.84 18.7975 -5.5 17.4375 C-6.09167969 17.27894531 -6.68335937 17.12039062 -7.29296875 16.95703125 C-12.47005755 15.42839655 -16.33485927 14.0797064 -19.5 9.4375 C-19.57092769 5.39462169 -19.1472379 3.28560484 -16.6875 0.0625 C-11.6883351 -3.65116535 -5.22209025 -3.2638064 0 0 Z " fill="#1878F4" transform="translate(89.5,17.5625)"/>
<!-- HURUF S -->


<!-- HURUFF F -->
<path d="M0 0 C5.94 0 11.88 0 18 0 C17.67 1.98 17.34 3.96 17 6 C13.7 6 10.4 6 7 6 C7 7.98 7 9.96 7 12 C8.299375 11.979375 9.59875 11.95875 10.9375 11.9375 C12.29165633 11.91600546 13.64756083 11.92851801 15 12 C16 13 16 13 16.0625 15.5625 C16.041875 16.366875 16.02125 17.17125 16 18 C13.03 18 10.06 18 7 18 C7 21.63 7 25.26 7 29 C4.69 29 2.38 29 0 29 C0 19.43 0 9.86 0 0 Z " fill="#1878F4" transform="translate(95,16)"/>
<!-- HURUFF F -->


<!-- HURUF S DIDALAM -->
<path d="M0 0 C2.5625 1.8125 2.5625 1.8125 4 4 C4 4.99 4 5.98 4 7 C1 7 -2 7 -5 7 C-4.36191406 7.23074219 -3.72382813 7.46148438 -3.06640625 7.69921875 C-0.59543393 8.67450112 1.71131959 9.64838308 4 11 C5.0625 13.75 5.0625 13.75 5 16 C6.98 16 8.96 16 11 16 C11 17.65 11 19.3 11 21 C9.02 21 7.04 21 5 21 C4.67 20.34 4.34 19.68 4 19 C2.948125 19.7425 2.948125 19.7425 1.875 20.5 C-1.47730606 22.24902925 -3.26724559 22.4665943 -7 22 C-9.8125 20.875 -9.8125 20.875 -12 19 C-12.8125 15.8125 -12.8125 15.8125 -13 13 C-12.01 12.67 -11.02 12.34 -10 12 C-10.515625 11.649375 -11.03125 11.29875 -11.5625 10.9375 C-13 9 -13 9 -12.875 5.4375 C-11.19549875 -1.16054062 -5.81828791 -0.87169295 0 0 Z M-8 13 C-7.67 13.99 -7.34 14.98 -7 16 C-5.09291157 16.91428339 -5.09291157 16.91428339 -3 17 C-2.34 16.34 -1.68 15.68 -1 15 C-3.95377498 12.63019987 -3.95377498 12.63019987 -8 13 Z " fill="#1878F4" transform="translate(27,20)"/>
<!-- HURUF S DIDALAM -->



<!-- HURUF F DIDALAM -->
<path d="M0 0 C5.61 0 11.22 0 17 0 C17 1.65 17 3.3 17 5 C11.39 5 5.78 5 0 5 C0 3.35 0 1.7 0 0 Z " fill="#1878F4" transform="translate(32,21)"/>
<path d="M0 0 C4.29 0 8.58 0 13 0 C13 1.98 13 3.96 13 6 C11.02090602 6.02686553 9.04171029 6.04633375 7.0625 6.0625 C5.96035156 6.07410156 4.85820313 6.08570313 3.72265625 6.09765625 C1 6 1 6 0 5 C0 3.35 0 1.7 0 0 Z " fill="#1878F4" transform="translate(32,28)"/>
<!-- HURUF F DIDALAM -->
</svg>
